<?xml version="1.0" encoding="utf-8"?>
<!-- Generator: Adobe Illustrator 24.2.1, SVG Export Plug-In . SVG Version: 6.00 Build 0)  -->
<svg version="1.1" id="Background" xmlns="http://www.w3.org/2000/svg" xmlns:xlink="http://www.w3.org/1999/xlink" x="0px" y="0px"
	 viewBox="0 0 8000 922.2" style="enable-background:new 0 0 8000 922.2;" xml:space="preserve">
<style type="text/css">
	.st0{fill:#028EBD;}
</style>
<g id="XMLID_2075_">
	<path id="XMLID_2083_" class="st0" d="M7907.8,398.5V296.7h-79.5v41l-47.3,9.6v21.8h-69.2v24.4h-18.4l-11.5-12.2h-31.1l-13.3,10
		h-19v37.9h-39.2V220.5l-19.6-18.3h-56.5v49.7H7449l-28.8,11.3V384h-39.2l-13.8,18.3v18.3h-40.4v-35.8h-15V281.9l-32.3,16.7v-52.9
		l-25.4-19.2h-25.4l-28.2,21.4v57.5l-23.9,18.1h-71.2l-10.5,8v78.6h-42.5V293.7l-48.4-57.6h-20.7v57.9h-27.7v-13.1h-47.3l-21.9,16.6
		h-53l-19.6,30.5v42.7h-33.4v38.4h-38v-18.3h-48.4v-89.8l-9.2-14.8h-54.2l-16.1,12.2v117.7h-31.1l-10.4,12.2v25.3H6544V352.6h-71.5
		v36.6H6423V259.7h-61.1l-32.3,24.4v71.9h-53v-35.8l-15-11.3h-32.3l-32.9,24.9v56.3h-94l-23.1,20.9H6046v-90.7h-76.1v-11.7
		l-27.1-20.5h-37.5v-43.5l-59.9-11.2v121.8h-32.3l-10.4,16.6v36.6h-23.1v24.4h-31.1V315.1h-86.5v73.3h-70.3v28.8h-81.8v-85.5h-36.4
		l-20.8,14.8v83h-8.3c-25.2-46.6-57.4-99.7-78.5-111.6c-39.4-22.2-71.4-44.3-130.5-46.8c-59.1-2.5-128,22.2-199.5,16.1
		c-71.5-6.1-152.6,3.6-179.5,20.8c-27,17.2-101.1,66.5-140.4,78.8c-39.3,12.3-123.2,4.9-184.7-12.3c-61.5-17.2-307.8-4.9-352.2,0
		c-44.4,4.9-118.1,24.6-162.4,47.9c-44.3,23.3-145.3,30.8-211.7,33.3c-66.4,2.5-138.2,15.3-138.2,15.3h-97.6
		c0,0-136.1-1.8-190.5-4.5c-54.5-2.7-70.2,2.7-129.3,0.8c-59.1-1.8-262.2,0-334.2,0c-72,0-122.8,4.6-216,5.5s-435.8-5.5-482.9-5.5
		c-47.1,0-156,4.6-205,5.5s-153.3-5.5-219.7-5.5c-66.5,0-68.3,115.3-147.7,122.7l-28.8,38.6H0v293.6h8000V628.7V398.5H7907.8z"/>
	<path id="XMLID_2082_" class="st0" d="M4881.8,145.5c3.2-0.5,5.7-2.3,8.4-3.3c2.8-1,5.4-1.3,8.3-0.4c1.6,0.5,2.7,1,3.5,2.8
		c1.4,3.1,4.6,3.4,7.8,0.8c-2.8-1.8-1.8-3.8-0.4-5.9c2.8-4.4,7.2-4.6,11.7-4.8c1.5-0.1,3.1,0.3,4.8-0.3c-3.3-3.1-11.9-3.9-15.4-1.5
		c-1.4,0.9-1.9,2.5-2.7,3.9c-2.5,4.5-4.8,5.2-9.3,2.8C4891.6,135.9,4884.8,138.2,4881.8,145.5z"/>
	<path id="XMLID_2081_" class="st0" d="M4834.7,108.9c-2.9,1.4-6.1,1.3-8.8,0.6c-4.1-1.1-8.1-2.5-12.3-3.3c-3.4-1.2-7-0.9-10.4-2.1
		c-2.1-0.8-4.2-1.3-6.4-1.8c3.5,3.1,8.1,3.2,12.3,4.5c4.7,2.3,10,2.5,14.8,4.7c1.2,0.5,2.2,0.9,2.3,2.4c0.2,1.9,1.9,2.9,2.7,4.5
		c0.5,0.9,0.9,0.3,1.3,0.1c1-0.5,1.9-1.2,2.9-1.7c0.9-0.5,1.3-0.8,0.4-1.8c-1.5-1.6-0.8-2.6,1.1-3.2c5.8-1.8,11.6-3.5,17.1-6
		c0,0,0,0,0,0c2-0.8,4-1.6,6.1-2.4c0,0,0,0,0,0c0,0,0,0,0,0c1.5-0.4,2.7-1.3,3.8-2.7c-1.4,0.7-2.9,1.4-4.3,2c-3.8,1-7.5,2-11.3,3
		C4841.9,106.3,4838.1,107.2,4834.7,108.9z"/>
	<path id="XMLID_2080_" class="st0" d="M4849.8,125.5c4.4,1.3,9,0,13.4,1.2c1.3,0.8,2.9,0.9,4,2.2c1.3,3.5,4.5,5.5,8.3,5
		c1.3-0.2,1.5-0.7,0.6-1.6c-1.5-1.5-1.2-3.1-0.5-4.9c1.7-4.3,4.6-7.5,8.7-9.7c2.6-1.4,5.3-2.8,8.3-4.4c-1.3-0.4-2.3-0.4-3.3-0.1
		c-1.9,0.6-3.8,1.2-5.7,1.7c-5.5,1.7-9.9,4.5-11.4,10.5c-0.1,0.5-0.2,1.3-0.9,1.7c-2.4,0.7-4.6,0.2-6.7-1.3
		C4859.7,123.3,4854.8,122.9,4849.8,125.5z"/>
	<path id="XMLID_2079_" class="st0" d="M4796.6,57.2L4796.6,57.2c5.8-2.4,11.3-5.5,17.4-7.3c2.2-0.7,4.2-1.1,6.4,0
		c2.6,1.4,5,0.8,7.2-1c-0.1-0.2-0.1-0.4-0.3-0.5c-0.8-0.7-2.5-0.6-2.4-2c0.1-1.3,1.7-1.3,2.6-1.8c5.7-3.1,11.9-4.5,19-5.8
		c-8.2-0.8-18.3,1-24.6,4.1c0,0,0,0,0,0c0,0,0,0,0,0c-1.3,0-2.6,0-3.9,0.1c-1.1,0.1-2.3,0.2-2.4,1.7c-0.3,0.3-0.6,0.8-1,0.9
		c-7.4,1.6-13,6.4-18.7,11v0c-2.6,1.2-4.8,3.4-8,3.5C4791.3,60.4,4794,59.2,4796.6,57.2z"/>
	<path id="XMLID_2076_" class="st0" d="M2750.9,208.3l-9.7,4.4c0,0-3.3-1.9-5.4-2.3c-2.1-0.4-4.1-1.7-5.5-2.1
		c-1.4-0.4-4.9-0.5-6.6,4.5c-1.7,5,2.4,6.8,2.4,6.8s-7,3.6-7.9,4c-0.8,0.4-2.1,0.7-1.8,1.5c0.3,0.8,3,2.5,5.9,3
		c1.6-0.5,3.8-0.9,6.4-1.4c1.8,1.3,5.1,3.3,6.6,3.2c0.6,0-0.3-1.2-2.4-3.9c0.5-0.1,0.9-0.1,1.4-0.2c1.7,1.2,5.4,3.7,7.2,3.9
		c1.3,0.1,0-1.5-1.4-3.1c1.4,1,4.7,3.2,5.9,3.4c1.5,0.2,1.1-0.7,0.6-1.2c-0.5-0.6-1.5-0.3,0.1-1.3c0.4-0.3,0.6-0.7,0.7-1.3
		c0.9,0.9,2.6,2.5,3.8,3c1.7,0.8,3.1,0.7,2.6-0.4c-0.4-0.7-2.7-3.1-4.2-4.6c0.1,0,0.2,0,0.2,0c1.2-0.1,5.5,0,10.3,0.1
		c1.8,1.8,5.5,5.4,8.9,6.1c0.8,0.1,1.5-0.6,0.9-1.5c-0.4-0.5-2.5-2.9-3.9-4.5c5.6,0.1,10.5,0.2,10.5,0.2s19.9,13.5,21.8,14.2
		c1.9,0.7,11,2.7,11,2.7s-2,0.8-3,1.2c-1,0.4-1.3,0.6-1.3,1.3c0,0.7,3.2,2.4,3.6,2.5c0.4,0.1,12.4-2.1,14.4-2.5
		c1,0.2,12.1,0.3,13.5,0.1c1.3-0.2,0.8-1.6,0.8-1.6l31.8,0.4c-0.2-0.3-1.7-2-3.6-3.2c-2-0.7-33.7-4.4-33.7-4.4
		c3.2-6.7,6.6-18.9,6.6-18.9c0.4-0.1,2-0.3,4.4-0.5c1.7,1.9,5.3,5.8,5.9,6c0.7,0.3,1.7,0.1,1.4-0.8c-0.2-0.6-2.2-3.7-3.6-5.5
		c2.1-0.1,4.4-0.3,7-0.4c1.2,1.3,2.7,3.1,3.6,3.8c1.6,1.2,3.2,1.9,2.7,0.7c-0.4-1-1.5-3.4-2.6-4.7c3.2-0.2,6.5-0.4,9.8-0.5
		c1.1,1.1,3.7,3.7,3.9,4c0.3,0.4,1.2,0.5,1.5,0.2c0.3-0.2-0.3-1.8-2.7-4.3c12.2-0.6,23.6-1.2,25.1-1.2c-0.6-0.9-4-4-5.9-4.2
		c-4.7-0.5-80.1-4-81-4.1c-0.8-0.1-1.3-1.1-3.4-1.6c-1.5-1.1-2-3.1-6-3c-4,0.1-5.6,3.6-5.6,3.6l-1.2,0.1c0,0-38-28.2-47.6-34.2
		c-9.5-6-21.2-7.3-22.7-6.6c-1.5,0.6-3.6,2-5.3,2c-1.7,0-3.1,1-3.4,2.2c-0.3,1.1,0.5,10.4,7.2,18
		C2726.5,193.1,2750.9,208.3,2750.9,208.3z M2815.6,219.9c2.6-0.6,10.6-1.4,12.1-1.9c-0.8,1.4-4.6,5.6-6.4,6.3
		c-1.8,0.7-2.8,0.4-2.8,0.4s-2.8-2.1-3.8-2.8C2815.2,221.5,2815.5,220.7,2815.6,219.9z"/>
</g>
</svg>
