<?xml version="1.0" encoding="utf-8"?>
<!-- Generator: Adobe Illustrator 24.3.0, SVG Export Plug-In . SVG Version: 6.00 Build 0)  -->
<svg version="1.1" id="Layer_1" xmlns="http://www.w3.org/2000/svg" xmlns:xlink="http://www.w3.org/1999/xlink" x="0px" y="0px"
	 viewBox="0 0 693.21 546.7" style="enable-background:new 0 0 693.21 546.7;" xml:space="preserve">
<style type="text/css">
	.st0{fill:#E1251B;}
	.st1{fill:#FFFFFF;}
</style>
<path class="st0" d="M679.38,343.04l-0.23-0.28c-0.76-0.94-1.52-1.88-2.37-2.86l-1.54-1.79c-2.47-2.86-5.11-5.93-7.88-9.05
	c-1.3-10.87-5.78-21.46-13.55-30.47c-2.94-3.41-5.99-6.28-9.07-8.7c4.1-5.74,7.95-11.64,11.52-17.71
	c22.15-37.64,30.88-77.18,25.96-117.51c-3.64-29.82-14.59-56.6-32.54-79.6c-19.03-24.39-44.75-43.36-76.48-56.37
	c-22.21-9.11-46.54-14.89-72.31-17.19c-8.38-0.75-16.71-1.12-24.77-1.12c-11.88,0-23.63,0.82-34.94,2.45
	c-32.6,4.68-64.2,15.56-93.95,32.32c-16.11-8.85-33.78-16.19-53.46-22.25C265.92,4.34,237.28,0,208.66,0l-0.79,0
	c-21.13,0.08-40.3,2.1-58.59,6.2c-29.19,6.54-53.61,17.48-74.67,33.47C38.86,66.8,17.26,104.31,12.14,148.14
	c-3.01,25.78,0.39,52.12,10.1,78.3c9.05,24.4,22.73,46.77,41.64,68.1c-13.01,6.26-20.67,16.18-23.73,20.16
	c-2.51,3.27-4.83,6.62-6.87,9.58c-0.88,1.28-2.22,3.21-2.68,3.83c-1.59,2.07-3.17,4.21-4.76,6.34c-1.19,1.61-2.38,3.23-3.58,4.79
	l-9.29,12.09C4.5,362.35,0.02,375.15,0,388.34c-0.03,17.92,8.11,34.46,22.3,45.35c6.49,4.99,14.03,8.56,22.02,10.52
	c4.87,7.61,11.28,14.21,19.17,19.38c5.39,3.53,11.2,6.21,17.25,7.99c4.36,4.91,9.63,9.12,15.78,12.41c2.98,1.6,6.09,2.92,9.29,3.97
	c3.48,2.76,6.63,4.65,8.76,5.79c5.15,2.76,10.73,4.7,16.49,5.75c4.15,2.89,8.79,5.45,13.95,7.67c1.09,0.47,2.07,0.85,2.93,1.16
	l2.35,1.01c2.81,1.2,5.64,2.19,8.5,2.98c3.42,2.02,7.11,3.75,11.06,5.13c2.96,1.03,5.88,1.84,8.79,2.42
	c3.81,2.22,7.45,3.78,10.56,4.87c5.27,1.84,10.75,2.83,16.31,3.03c1.79,0.63,3.48,1.16,5,1.57c5.79,1.56,8.61,2.27,13.19,2.94
	l0.66,0.1l0.03,0c4.77,2.23,9.95,3.91,15.5,4.93c5.72,1.06,11.37,1.59,16.78,1.59c7.39,0,14.48-0.98,21.18-2.88
	c9.04,6.06,20.46,9.94,34.17,10.29l1.84,0.05c0.78,0.02,1.55,0.03,2.31,0.03c7.46,0,14.61-0.97,21.36-2.75
	c5.69,1.97,11.77,3.03,18.06,3.03l0.95-0.01c13.19-0.22,25.28-4.67,35.01-12.32c7.02,3.14,14.69,4.84,22.61,4.84
	c3.22,0,6.48-0.28,9.68-0.85c4.01-0.71,7.96-1.83,11.76-3.33c0.29,0.01,0.58,0.03,0.88,0.03h0.01c4.35,0,8.71-0.52,12.96-1.56
	c3.17-0.77,6.21-1.78,9.1-3c3.04-0.22,6.07-0.69,9.02-1.41c3.38-0.82,6.6-1.95,9.67-3.31c5.57-0.74,10.33-2,13.17-2.88
	c1.15-0.36,2.15-0.7,3.02-1.02l2.46-0.76c8.03-2.48,15.12-6.27,21.1-11.04c7.49-0.15,14.82-1.75,21.79-4.8
	c2.97-1.3,5.8-2.81,8.47-4.52c2.98-0.76,5.91-1.77,8.78-3.03l0.69-0.31c3.88-1.77,7.47-3.81,10.76-6.08
	c4.85-1.57,8.92-3.51,12.12-5.19l1.8-0.95c2.48-1.3,4.82-2.69,7.02-4.13c4.83-1.46,9.49-3.54,13.86-6.24
	c1.26-0.78,5.02-3.25,9.35-7.45c4.28-1.41,8.41-3.33,12.29-5.74c3.65-2.26,7.01-4.88,10.05-7.81c1.82-1.08,3.62-2.22,5.35-3.51
	c2.49-1.85,4.8-3.84,6.92-5.93c3.49-1.66,6.83-3.67,9.99-6.01c3.68-2.73,6.96-5.9,9.82-9.4c2.27-1.46,4.45-3.08,6.52-4.86
	c8.57-7.38,14.8-16.78,18.04-27.17C696.46,378.25,692.24,358.1,679.38,343.04"/>
<path class="st1" d="M199.21,40.56c25.27-0.06,49.97,3.75,74.11,11.17c22.64,6.97,44.14,16.4,63.65,30.02
	c1.47,1.02,2.91,2.09,4.35,3.17c3.08,2.3,6.08,2.28,9.35,0.18c7.3-4.69,14.59-9.43,22.12-13.75c25.3-14.49,52.31-24.2,81.22-28.35
	c16.66-2.39,33.38-2.54,50.13-1.05c20.71,1.84,40.82,6.28,60.09,14.19c22.7,9.31,42.58,22.58,57.83,42.13
	c12.95,16.6,20.35,35.49,22.9,56.34c3.91,32.01-3.93,61.4-20.08,88.85c-16.6,28.2-39.44,50.49-66.07,69.16
	c-21.61,15.15-45.25,26.22-70.07,34.86c-2.58,0.9-5.51,1.14-8.27,1.1c-2.38-0.03-3.39-2.02-1.97-3.93c1.86-2.5,4.09-4.83,6.52-6.79
	c8.75-7.06,17.81-13.72,26.44-20.91c18.56-15.44,35.59-32.4,49.91-51.94c12.37-16.87,22.18-35.01,27.16-55.51
	c6.09-25.08,3.7-48.97-10.09-71.23c-10.09-16.29-23.97-28.51-40.74-37.56c-16.54-8.92-34.29-13.8-52.92-15.77
	c-41.94-4.43-80.31,6.26-116.1,27.6c-5.85,3.49-11.42,7.47-17.12,11.21c-4.06,2.66-6.69,2.68-10.14-0.31
	c-16.97-14.67-36.64-24.36-57.79-31.24c-24.73-8.05-50.1-11.36-76.05-9.18c-23.21,1.94-45.09,8.29-64.71,21.2
	c-18.61,12.25-32.06,28.61-37.95,50.38c-7.03,25.94-3.14,50.54,10.29,73.67c10.11,17.41,24.16,31.23,40.09,43.25
	c21.44,16.18,45.16,28.26,69.99,38.23c28.91,11.6,58.72,20.15,89.42,25.51c7.59,1.33,15.3,1.99,22.95,3
	c7.46,0.99,14.5-0.64,21.44-3.19c29.88-11.01,56.26-27.24,77.03-51.75c13.34-15.74,22.01-33.75,24.94-54.3
	c1.97-13.83,1.83-27.49-3.94-40.6c-7.96-18.11-25.36-28.12-44.98-26.21c-15.89,1.54-28.9,8.85-39.86,19.88
	c-7.03,7.08-13.26,14.94-19.88,22.43c-1.04,1.18-2.1,2.42-3.37,3.32c-2.83,2.02-5.56,1.44-7.44-1.48c-1.61-2.49-3-5.12-4.64-7.58
	c-9.23-13.86-20.68-25.33-36.15-32.09c-13.75-6.01-27.93-7.47-42.26-2.15c-15.73,5.84-25.93,20.67-26.24,37.45
	c-0.29,15.52,5.6,28.74,15.07,40.6c9.5,11.89,21.31,21.12,34.1,29.19c16.92,10.67,35.01,18.88,53.81,25.61
	c1.54,0.55,3.08,1.21,4.47,2.07c1.42,0.88,2.29,2.28,1.84,4.05c-0.44,1.71-1.89,2.49-3.44,2.48c-3.22-0.01-6.48-0.07-9.66-0.54
	c-30.48-4.47-59.58-13.49-87.24-27.05c-17.69-8.67-34.11-19.22-47.85-33.54c-11.13-11.6-19.47-24.82-22.71-40.8
	c-5.16-25.42,2.71-46.39,22.3-62.98c12.13-10.27,26.57-15.53,42.19-17.48c37.58-4.69,69.35,8.04,96.94,32.88
	c3.22,2.9,6.12,6.17,9.02,9.39c3.44,3.82,5.6,3.99,9.35,0.55c15.69-14.38,33.19-25.98,52.99-33.93c14.02-5.64,28.56-9.12,43.72-8.37
	c26.51,1.31,47.98,12.08,62.31,35.1c6.49,10.44,9.53,22.06,10.45,34.26c1.87,24.72-5.43,47.17-17.59,68.18
	c-19.81,34.22-47.27,60.74-81.93,79.8c-19.43,10.68-39.46,19.92-60.9,25.85c-4.23,1.17-8.58,2.21-12.94,2.56
	c-4.01,0.32-8.11-0.22-12.14-0.63c-16.8-1.71-33.48-4.27-50-7.79c-39.96-8.49-78.25-21.68-114.34-40.98
	c-27.15-14.52-52.17-31.99-73.73-54.12c-17.64-18.11-32-38.42-40.86-62.3c-6.79-18.31-9.82-37.21-7.54-56.65
	c3.71-31.72,18.79-57.09,44.15-76.34c17.04-12.93,36.46-20.64,57.19-25.28C165.76,42.09,182.42,40.62,199.21,40.56 M37.48,390.3
	l9.84-12.81c2.95-3.84,5.87-7.94,8.83-11.78c2.73-3.56,6.72-9.78,10.11-14.19c2.13-2.78,4.04-4.82,5.17-4.97
	c2.14-0.28,4.07,0.75,6.06,2.28c1.21,0.93,3.6,2.54,5.52,4.01c8.04,6.18,9.38,17.4,3.59,24.94c-0.38,0.5-0.64,0.98-1.02,1.48
	c-5.69,7.4-14.93,8.68-21.94,4.54c-1.25-0.73-3.05-1.78-4.19-2.65l-0.21-0.16c-0.5-0.38-0.93-0.26-1.44,0.25l-0.33,0.43l-0.38,0.5
	l-0.82,1.07L45,397.89c-1.53,1.99-5.68,2.09-8.03,0.28C35.12,396.76,34.63,394,37.48,390.3z M77.34,360.38l-1.85-1.42
	c-0.5-0.38-0.99-0.19-1.55,0.39l-0.16,0.21c-3.23,4.2-6.32,8.96-9.98,13.72c-0.42,0.7-0.26,0.93,0.02,1.15l0.43,0.33
	c2.56,1.97,5.39,3.01,8.63,1.88c2.38-0.89,4.08-2.07,5.18-3.49C81.28,368.95,81,363.42,77.34,360.38z M113.56,374.86
	c4.8,3.15,3.92,12.34,2.55,18.53c-1.8,5.37-4.45,10.71-6.08,13.19c-7.29,11.11-20.95,28.66-32.88,20.83
	c-6.38-4.19-6.88-11.6-5.74-18.9c0.79-4.64,3.91-9.89,6.91-14.46C86.35,381.8,103.58,368.31,113.56,374.86z M85.61,400.1
	c-4.58,6.98-8,15.79-3.35,18.84c5.85,3.84,14.63-7.9,19.55-15.4l1.08-1.65c2.31-3.53,8.76-17.76,5.08-20.18
	C102.88,378.37,90.39,392.83,85.61,400.1z M126.9,456.78c4.04,2.16,11.31-5.14,13.89-8.44c5.49-6.83,12.7-16.31,16.67-22.94
	c2.19-3.71,4.16-6.63,5.76-9.23l0.72-1.35c1.36-2.53,2.31-5.07,2.6-8.08c0.11-1.16-0.3-2.1-1.25-2.6c-0.47-0.25-1.03-0.35-1.64-0.37
	c-2.29,0.1-4.31,1.77-5.93,3.85c-7.22,9.68-14.48,22.48-22.83,32.16l-0.04,0.08c-0.47-0.25,6.09-26.57,6.48-27.68
	c0.49-1.67,1.91-6.61,0.33-7.46c-1.58-0.85-4.87,1.87-5.83,3.09c-6.24,7.65-14.66,15.77-16.78,19.73c-0.87-0.47-0.83-0.55-0.23-1.85
	c2.2-5.44,3.04-11.2,5.17-16.88c1.82-4.73,4.69-14.08,5.51-19.04c0.2-1.32,0.84-4.23-0.58-5c-2.53-1.36-4.52,0.64-6.03,3.28
	c-0.13,0.24-0.33,0.43-0.46,0.67c-0.68,1.27-1.2,2.62-1.68,3.89c-6.98,17.03-8.64,27.34-13.69,41.33
	c-1.26,3.3-2.91,10.56,0.73,12.51c4.11,2.2,7.19-2.97,10.42-6.53c5.22-5.76,11.89-17.45,13-16.86c1.19,0.64-5.24,16.44-5.42,17.15
	C124.57,445.35,121.44,453.85,126.9,456.78z M151.42,451.33c-0.78,1.81-1.76,4.32-2.5,6.06l-0.28,0.66
	c-0.99,2.31-1.38,3.9-0.33,6.69c0.52,1.3,5.11,3.56,6.35,4.09c0.58,0.25,1.11,0.38,1.69,0.63l3.96,1.7
	c4.54,1.95,7.05,0.87,8.39-2.26c1.1-2.56-0.56-4.15-8.65-7.62c-1.07-0.46-2.52-1.18-2.13-2.09l0.04-0.08l0.04-0.08
	c1.91-4.45,3.99-9.52,5.47-12.99c0.21-0.49,0.44-0.79,0.77-0.65c1.9,0.81,5.9,1.95,7.55,2.65c2.31,0.99,4.06-2.17,4.87-4.06
	c1.31-3.05-4.01-4.55-7.49-6.44c-1.41-0.8-1.79-1.06-1.15-2.55c1.95-4.54,4.98-11.15,7.03-15.93c0.28-0.66,0.59-0.92,1-0.74
	l8.66,3.72c1.65,0.71,3.91,0.21,4.62-1.44l0.07-0.16c0.25-0.58,0.87-2.26,0.84-2.86c-0.08-2.09-0.77-2.77-2.25-3.41
	c-3.96-1.7-6.79-3.3-10.99-5.11l-1.15-0.5c-2.14-0.92-4.71-1.53-5.95,1.35c-5.38,12.54-10.66,23.26-15.9,35.47L151.42,451.33z
	 M174.94,471.59c2.72-7.8,5.6-14.4,8.23-21.94l1.66-4.74c1.67-5.31,3.72-11.73,5.49-16.81l1.27-3.64c2.46-7.03,4.65-7.6,11.51-5.2
	c3.22,1.12,6.46,3.02,7.44,3.74c0.9,0.69,1.8,1.39,2.47,2.19c3.07,3.45,2.77,8.67,1.65,13.79c-0.46,2.12-1.12,4.55-1.97,7.01
	c-2.6,7.46-7.2,15.17-13.56,12.95c-0.76-0.27-1.11-0.1-1.25,0.32c-0.12,0.34-0.07,0.74,0.07,1.16c1.9,6.27,4.26,13.94,4.85,19.85
	c0.13,1,0.06,1.73-0.24,2.58c-0.8,2.29-2.95,3.82-4.73,3.2c-5.08-1.78-5.41-9.02-5.97-13.11c-0.69-5.09-0.48-8.15-1.17-13.24
	c-0.05-0.4-0.27-0.86-0.61-0.97c-0.59-0.21-1.12,1.03-1.6,2.39c-0.41,1.19-0.77,2.49-0.98,3.08c-0.8,2.57-2.28,8.43-3.4,11.65
	c-1.27,3.64-3.71,3.55-6.76,2.49C173.78,477.08,173.91,474.56,174.94,471.59z M200.4,430.01c-0.88,2.26-1.77,4.52-2.6,6.89
	c-1.21,3.47-2.38,7.35-3.48,10.77c-0.15,0.71-0.22,1.44,0.37,1.65l0.08,0.03c6.08,1.36,8.47-0.84,10.48-6.61
	c2.13-6.1,4.1-12.83-2.25-15.05C201.58,427.18,201.02,428.51,200.4,430.01z M230.95,487.85c1.45-5.37-6.02-5.62-10.6-7.6
	c-0.99-0.45-1.22-0.98-0.97-1.93c0.14-0.52,0.69-2.23,0.83-2.75c1.19-4.42,1.86-7.59,2.7-10.71c0.26-0.95,0.32-0.84,2.68-0.3
	c2.69,0.72,7.26,1.68,7.96-0.92c0.79-2.95-0.64-4.54-3.58-5.71c-0.41-0.2-3.36-1-3.7-1.09l-0.69-0.19c-0.43-0.12-0.5-0.23-0.31-0.92
	l0.61-2.25l0.91-3.38c0.86-3.21,1.49-6.2,2.47-9.84l0.35-1.3c0.37-1.39,1.85-1.36,2.72-1.13c1.3,0.35,2.98,1.36,5.1,2.12
	c0.32,0.18,0.67,0.27,1.02,0.37c2.69,0.72,5.1,0.72,5.71-1.53c1.71-6.33-2.45-7.82-10.16-9.9c-4.33-1.17-9.69-2.33-10.82,1.17
	c-3.32,10.26-6.84,22.98-10.04,34.85l-4.46,16.55c-1.17,4.33,3.74,7.15,7.82,8.24c7.02,1.89,5.66,1.43,9.3,2.04
	C227.93,492.15,230.25,490.45,230.95,487.85z M237.99,489.08c0.02-0.09,0.11-1.08,0.14-1.25c1.56-8.47,3.23-15.01,4.8-23.58
	l0.13-0.71c1.77-9.62,4.04-17.97,5.66-26.7c0.33-1.77,2.67-3.61,4.53-3.27c22.33,4.12,26.61,12.12,22.39,34.98l-0.05,0.26
	c-3.83,20.29-11.06,32.28-32.43,28.34C239.36,496.46,237.12,494.77,237.99,489.08z M256.83,442.81c-0.88-0.16-1.3,0.13-1.5,1.18
	l-0.02,0.09l-0.62,3.35c-1.04,5.65-2,9.85-3.17,16.21l-0.47,2.56c-0.18,0.97-0.47,2.56-0.83,4.5c-1.25,6.8-3.12,17.41-2.68,17.49
	c11.12,2.05,15.07-4.98,17.93-20.52l0.73-3.97c2.17-11.74,2.64-17.77-8.85-20.8L256.83,442.81z M303.87,470.94
	c0.14-5.29,0.1-10.68,0.24-16.06c0.02-0.9,0.14-1.88,0.16-2.87l-0.06-1.08c0.03-1.26-0.12-2.34-0.08-3.68
	c0.03-1.17,0.25-2.78,0.63-3.66c0.58-1.78,6.33-1.81,10.55-1.7c9.87,0.26,20.57,3.23,20.56,13.73c-0.23,8.97-7.98,10.03-8.02,11.37
	l0.09,0.09c1.26,0.03,10.71,5.93,10.71,16.17l-0.02,0.81c-0.39,14.98-12.06,22.13-25.97,21.77l-1.17-0.03l-0.81-0.02
	c-3.23-0.08-7.44-0.37-7.52-4.14c0.04-5.12,0-10.41,0.13-15.53C303.43,480.89,303.74,476.05,303.87,470.94z M314.01,464.2
	c4.22,0.11,12.48-3.63,12.6-8.29c0.15-5.65-6.21-6.45-11.41-6.58l-2.15-0.06c-0.45-0.01-0.64,4.02-0.74,7.61
	c-0.07,2.78-0.05,5.48-0.07,6.1C312.21,464.15,312.93,464.17,314.01,464.2z M319.64,472.15c-2.42-0.06-4.68,0.33-6.68,1.44
	c-0.55,0.26-0.83,0.79-0.84,1.41c-0.03,1.26,0.03,2.42-0.01,3.68c-0.08,2.96-0.24,5.83-0.32,8.79c-0.02,0.72-0.13,1.61-0.16,2.69
	c-0.05,1.97,0.07,4.22,1.23,4.43s2.24,0.24,3.23,0.26c7.45,0.19,12.94-3.89,13.15-12.05C329.43,475.55,326.55,472.33,319.64,472.15z
	 M361.83,491.12c-0.05-3.23-0.28-6.01-0.33-8.97c-0.05-2.78,0.13-2.7,0.16-6.38c1.58-2.36,5.41-9.52,8.86-17.75
	c1.12-2.71,2.83-7.95,2.77-11.72c-0.04-2.6-0.88-4.47-3.31-4.43c-2.42,0.04-5.13,4.75-6.5,8.73c-3.41,10.47-5.3,15.89-6.38,15.91
	c-1.17,0.02-3.81-7.84-5.08-13.56c-1.74-7.51-3.84-9.72-6.45-9.68c-2.42,0.04-3.18,2.93-3.13,6.16c0.04,2.33,0.44,4.84,0.92,6.72
	c2.12,8.49,4.43,12.31,7.94,18.27c-0.13,3.14-0.13,3.05-0.04,8.08l0.16,9.42l0.03,1.62c0.1,6.1,0.39,12.65,3.98,12.59
	C361.36,506.04,361.95,498.13,361.83,491.12z M423.26,437.15c-0.73-4.15-2.41-3.86-7.54-2.96l-1.41,0.25
	c-2.28,0.49-4.67,0.91-6.97,1.32l-4.77,0.84c-1.33,0.23-2.65,0.47-3.87,0.77c-4.14,0.82-5.83,1.57-5.07,5.9
	c0.76,4.33,2.52,5.02,4.65,4.65c0.97-0.17,0.87-0.24,2.55-0.54l1.41-0.25c0.35-0.06,0.69-0.21,1.05-0.27
	c1.15-0.2,2.33-0.23,2.53,0.92l0.05,0.27c1.29,7.34,2.28,11.9,3.58,19.33c1.55,8.84,2.66,15.66,4.34,25.21
	c0.72,4.07,2.13,5.91,4.08,5.57c4.33-0.76,4.59-2.9,3.75-7.68c-0.39-2.21-1.39-6.86-1.79-9.16l-2.61-14.85
	c-1.2-6.81-2.36-13.44-3.18-20.13c-0.11-1.16,0.83-1.51,1.71-1.67c0.53-0.09,0.99-0.08,1.16-0.11l1.5-0.26
	C421.51,443.75,424.23,442.63,423.26,437.15z M463.63,483c-2.12-8.72-4.98-18.19-6.83-25.78l-0.13-0.52
	c-1.53-6.28-2.79-12.62-4.08-19.05c-0.59-3.18-0.88-4.77-1.35-7.43l-0.19-0.78c-0.34-1.4-2.38-2.56-3.6-2.27
	c-1.74,0.42-2.82,1.7-2.87,3.38c-0.14,1.7,0.05,3.22,0.3,5.01c1.32,8.83,2.94,17.39,4.98,25.77l0.34,1.4
	c0.11,0.44-2.95,1.55-5.04,2.06l-1.05,0.25c-0.87,0.21-2.2,0.44-3.6,0.78c-0.11-0.07-0.21-0.5-0.34-1.03
	c-2.46-10.12-3.74-18.4-5.81-28.43l-0.13-0.52c-0.57-2.35-1.88-5.08-4.5-4.45c-3.05,0.74-4.63,1.87-3.57,6.97
	c1.1,4.91,2.09,10.49,3.47,16.15c0.87,3.58,1.7,7.35,2.59,11.01c0.72,2.97,1.31,5.78,1.84,8.7l0.3,1.22
	c0.32,1.31,1.52,7.02,2.2,9.81c1.08,4.45,2.58,9.07,4.85,8.52c3.05-0.74,3.76-3.13,3.44-6.75c-0.23-2.07-2.11-10.57-2.19-12.03
	c-0.1-0.81,0.23-1.35,1.01-1.54l3.58-0.87c0.52-0.13,1.11-0.36,1.72-0.51c1.13-0.28,3.25-0.7,3.4-0.09
	c1.25,5.15,2.51,9.55,3.88,13.65c0.75,2.31,3.05,3.79,4.35,3.47C462.68,488.59,464.39,486.14,463.63,483z M467.69,472.21
	c0.58,1.89,1.46,4.43,2.02,6.23l0.21,0.69c0.74,2.4,1.47,3.87,4.08,5.32c1.23,0.65,6.2-0.6,7.49-1c0.6-0.19,1.09-0.43,1.69-0.61
	l4.12-1.27c4.72-1.46,5.94-3.9,4.93-7.16c-0.82-2.66-3.12-2.8-11.52-0.2c-1.11,0.34-2.69,0.73-2.98-0.21l-0.03-0.09l-0.03-0.09
	c-1.43-4.63-3.13-9.84-4.24-13.44c-0.16-0.51-0.18-0.88,0.16-0.99c1.97-0.61,5.76-2.34,7.47-2.87c2.4-0.74,1.69-4.28,1.08-6.25
	c-0.98-3.17-6-0.87-9.88-0.05c-1.6,0.3-2.05,0.35-2.53-1.19c-1.46-4.72-3.43-11.72-4.96-16.69c-0.21-0.69-0.15-1.08,0.28-1.21
	l9.01-2.78c1.72-0.53,3.12-2.37,2.59-4.09l-0.05-0.17c-0.19-0.6-0.8-2.29-1.22-2.72c-1.41-1.54-2.38-1.62-3.92-1.14
	c-4.12,1.27-7.31,1.88-11.68,3.23l-1.2,0.37c-2.23,0.69-4.59,1.88-3.66,4.89c4.02,13.04,6.94,24.63,10.86,37.32L467.69,472.21z
	 M514.69,429.17c-1.8-4.11-3.98-7.96-5.74-11.99c-0.4-0.9-0.93-2.34-1.54-3.74c-1.37-3.12-4.07-5.27-5.88-4.48
	c-3.86,1.69-2.2,6.16-0.4,10.27l0.36,0.82l0.58,1.32l1.37,3.12c2.27,5.18,5.86,12.92,8.38,18.67l0.18,0.41
	c1.26,2.88,2.44,5.79,3.62,8.7c1.51,3.45,3.12,6.67,4.64,9.92c1.5,2.97,3.06,6.3,6.43,4.83c2.47-1.08,4.23-3.32,3.04-6.04
	c-1.84-4.19-4.98-10.46-6.85-14.74c-0.47-1.07-0.07-1.73,0.8-2.21c2.93-1.58,4.44-2.83,7.12-4.78c0.21-0.19,0.29-0.23,0.46-0.3
	c0.66-0.29,1.05-0.07,1.44,0.84l1.19,2.71c1.01,2.3,3.94,8.76,5.11,10.99c1.59,2.73,2.66,6.97,5.95,5.53
	c5.72-2.6,5.67-4.74,3.47-9.75c-0.61-1.4-1.3-2.96-2.21-4.81l-2.09-4.77l-3.39-7.73c-1.77-4.03-3.49-7.97-4.92-10.78
	c-2.98-6.14-5.76-12.47-8.74-18.61c-0.77-1.53-2.81-3.96-4.7-3.13c-1.81,0.79-2.76,2.87-2.76,4.44c-0.14,4.37,1.16,8.02,2.96,12.13
	l2.41,5.51l0.18,0.41l2.49,5.67c0.4,0.9,0.87,1.77,1.2,2.51c0.54,1.23,0.77,2.21,0.03,2.53c-1.38,1.1-5.27,3.19-6.83,3.87
	l-0.49,0.22c-1.4,0.61-2.67,1.07-3.44-0.25c-0.88-1.57-2.33-4.86-3.05-6.51L514.69,429.17z M575.19,436.74
	c-2.42-4.61-5.96-3.26-10.89-0.67l-3.26,1.71c-0.48,0.25-0.81-0.19-1.06-0.66c-1.5-2.86-4.17-8.15-5.8-11.25
	c-0.96-1.83,2.3-3.74,3.97-4.61c0.32-0.17,0.6-0.21,0.84-0.34c4.45-2.33,4.25-4.66,3.2-6.65c-2.46-4.69-5.32-3.39-5.96-3.06
	c-0.16,0.08-5.92,3.21-6.16,3.33c-1.19,0.63-1.6,0.43-2.47-1.04c-0.99-1.51-2.12-3.65-3.29-5.88l-0.08-0.16l-2.5-4.77
	c-0.46-0.87-0.27-1.28,0.45-1.65c0.79-0.42,2.43-1.17,3.54-1.75c1.83-0.96,0.28-0.25,2.02-1.16c2.78-1.46,4.81-4.55,3.52-7.01
	c-2.25-4.29-5.28-2.91-9.33-0.78l-0.64,0.33c-2.23,1.17-8.3,4.66-9.6,5.85c-1.9,1.6-1.42,3.48-0.29,5.63
	c0.63,1.19,1.53,2.54,2.33,4.05c5.46,10.41,10.94,19.9,16.66,30.79l1.29,2.46l1.96,3.74c1.5,2.86,3.21,5.92,4.71,7.05
	c1.79,1.29,5.29-0.34,7.92-1.72l1.91-1C573.82,444.56,577.78,441.67,575.19,436.74z M579.56,436.03c-0.99-1.6-1.77-3.55-2.39-5.06
	c-7.48-16.7-14.43-34.25-15.37-50.44c-0.1-1.52,0.51-2.42,1.42-2.99c6.79-4.2,44.2,34.93,48.64,42.11c0.99,1.6-0.23,3.73-2.13,4.91
	c-7.18,4.44-13.56-14.41-17.76-11.81l-0.46,0.28c-2.16,1.97-9.6,6.15-8.19,8.76c2.48,4.69,8.22,13.81,3.49,16.73
	C583.52,440.55,580.93,438.24,579.56,436.03z M578.47,411.06l0.02,0.2c0.28,0.46,0.78,0.57,1.54,0.1l0.08-0.05
	c1.08-0.98,7.4-5.1,6.41-6.71c-0.99-1.6-14-13.93-14.99-13.31C570.22,392.09,577.34,409.22,578.47,411.06z M615.12,413.48
	c-4.93-6.63-8.78-12.71-13.55-19.12l-3-4.03c-3.46-4.36-7.63-9.65-10.84-13.97l-2.3-3.1c-4.45-5.98-3.68-8.11,2.15-12.45
	c2.74-2.04,6.12-3.65,7.27-4.06c1.08-0.35,2.16-0.71,3.2-0.81c4.58-0.61,8.73,2.57,12.34,6.37c1.5,1.57,3.15,3.48,4.7,5.57
	c4.71,6.34,8.52,14.47,3.12,18.48c-0.65,0.48-0.7,0.86-0.44,1.22c0.21,0.29,0.57,0.47,1,0.6c6.26,1.95,13.93,4.29,19.16,7.11
	c0.9,0.45,1.47,0.92,2,1.64c1.45,1.94,1.51,4.58-0.01,5.71c-4.32,3.21-10.5-0.58-14.21-2.41c-4.6-2.28-7.02-4.18-11.62-6.46
	c-0.36-0.18-0.86-0.25-1.15-0.04c-0.5,0.37,0.23,1.51,1.08,2.66c0.75,1.01,1.63,2.04,2,2.54c1.68,2.11,5.7,6.61,7.73,9.35
	c2.3,3.1,0.86,5.07-1.73,6.99C619.02,417.52,616.99,416,615.12,413.48z M594.96,369.08c1.37,2,2.75,4,4.25,6.01
	c2.2,2.95,4.75,6.09,6.96,8.91c0.5,0.52,1.07,0.99,1.58,0.62l0.07-0.05c4.54-4.27,4.05-7.49,0.41-12.38
	c-3.86-5.19-8.32-10.59-13.72-6.57C593.29,366.52,594.07,367.73,594.96,369.08z M618.07,337.67l-2.38,2.05
	c-3.6,3.11-4.84,4.42-7.84,7.12c-2.46,2.24-4.08,3.52-1.85,6.93c0.4,0.6,0.92,1.34,1.51,2.02c1,1.16,3.04,1.88,4.44,1.03
	c1.4-0.85,1.6-1.03,2.62-1.91l1.43-1.23l0.41-0.35c0.41-0.35,4,3.54,8.46,8.7c7.45,8.63,17.3,20.87,18.74,22.95
	c0.58,0.81,2.63,3.18,3.51,4.2c1.88,2.17,4.69,2.83,6.93,0.89c1.7-1.47,3.33-3.7,1.04-6.35c-0.88-1.02-1.63-2.03-2.51-3.05
	l-1.64-1.9c-4.75-5.5-9.73-11.28-14.7-16.48c-3.28-3.81-6.32-7.46-9.55-11.2c-0.94-1.09-1.81-2.23-2.61-3.44
	c-0.28-0.47-0.25-0.97,0.36-1.5l2.04-1.76c3.26-2.81,3.69-5.2,1.76-7.44C625.19,333.42,623.09,333.33,618.07,337.67z"/>
</svg>
