<?xml version="1.0" encoding="utf-8"?>
<!-- Generator: Adobe Illustrator 24.2.1, SVG Export Plug-In . SVG Version: 6.00 Build 0)  -->
<svg version="1.1" id="Distance" xmlns="http://www.w3.org/2000/svg"
     xmlns:xlink="http://www.w3.org/1999/xlink" x="0px" y="0px"
     viewBox="0 0 8000 922.2" style="enable-background:new 0 0 8000 922.2;" xml:space="preserve">
     <style type="text/css">.st0 {fill: #028EBD;}</style>
    <g>
        <path id="XMLID_2090_"
              class="st0"
              d="M8000,449.4h-62.2V233.6h-39.6v-33.1l-27.9-4.8v-40.9l-6.5-2.2V101l-5.2-6.5V69.2h-35.3
              l-2.6,6.1v19.1l-7,6.1v52.2h-4.8v174H7794v-10.9h-9.1v-70.5l-2.6-2.6v-33.5l-7.8-1.3v-21.7h-30.1v-36.5l-8.7-8.7v-21.8l-9.6-5.6
              V97.5l-8.3-2.6V65.3l-36.6-17.4v50l-20.9,0.4v46.5l-6.1,2.6v129.6l-6.5,10.4h-13.1l-10-10.4v-144l-3.9-10h-60.1l-9.1-13.9h-24.8
              l-6.1,13.9v89.2l-13.5,4.8v29.1h-12.6v-56.5l-8.7-1.7l-1.7-13.9h-15.2v-12.2h-23.5v94h-16.5v-13.3h-34.8v32l-9.6,13.1v88.3h-24.8
              v-73.9h-25.7v35.2h-28.3V348h-15.7V325l-27,0.4v23.9h-14.4v-58l-8.3-5.2h-76.2V330h-22.7V179.3H7081v-37.8h-105v118.8h-19.2v11.7
              h-18.9V96.8l-11.5-11.5h-54.9v144.4h-18.3v91.8h-20.5V169.7l-5.2-31.8l-7.4-10.4l-11.8-29.1h-37.5l-11.8,31.3l-5.2,5.2l-7.8,32.6
              v47h-31.4v22.2h-35.3l-14.4-17h-27.4v101.8h-27.4V158.4h-54.9v47l-30.1,2.6v60h-64v-48.3l-24.8-19.6V174H6405v27.4l-23.5,20.9
              l-13.1-3.9l-6.5-14.4h-26.1l-26.1,23.5v26.1l-13.1,6.5v95.3l-39.2-3.9V315l-17-5.2V298h-64v10.4l-27.4,6.5v35.2h-27.4V242.6
              l-11.8-25.4l-22.2-14.4h-15.7l-22.2,19.6l-10.5,20.2v165.1l-36.6,1.3l-11.8-225.8l-52.3-9.1l-40.5,13.1v35.2l-36.6-3.9l-56.2,13.1
              l-6.5-139.6L5779,65.7l-65.3,23.5l-24.8,35.2v14.4l-7.8,9.1v173.6l-14.4,8.5v17.6l-27.4,5.2v15.7l-34,1.3V146.6l-64-7.8l-26.1,19.6
              l-7.8,70.5h-47l-7.8,101.1l-11.9,3.3c-8.3-11.7-17.7-23.8-27.8-35.1c-41.9-46.8-179.8-65.4-179.8-65.4
              c-59.1-13.7-155.1,13.7-204.1,21.1c-49.1,7.4-207,2.5-268.4-14.8c-61.4-17.2-147.8,4.9-197.3,16.5c-49.5,11.6-78.6,57.3-135.5,64.7
              s-181.8-24.6-297.9-17.2s-179.3-7.4-250.7-32.2s-177.3-19.5-263.6,16.3s-204.2,220.2-204.2,220.2l-2.5,123.2H0v291.5h8000V762.5
              V630.7V478h-0.2L8000,449.4z"/>
    </g>
</svg>